<?xml version="1.0" encoding="utf-8" standalone="no"?>
<!DOCTYPE svg PUBLIC "-//W3C//DTD SVG 1.1//EN"
  "http://www.w3.org/Graphics/SVG/1.1/DTD/svg11.dtd">
<!-- Created with matplotlib (https://matplotlib.org/) -->
<svg height="288pt" version="1.1" viewBox="0 0 432 288" width="432pt" xmlns="http://www.w3.org/2000/svg" xmlns:xlink="http://www.w3.org/1999/xlink">
 <metadata>
  <rdf:RDF xmlns:cc="http://creativecommons.org/ns#" xmlns:dc="http://purl.org/dc/elements/1.1/" xmlns:rdf="http://www.w3.org/1999/02/22-rdf-syntax-ns#">
   <cc:Work>
    <dc:type rdf:resource="http://purl.org/dc/dcmitype/StillImage"/>
    <dc:date>2020-09-20T23:18:29.739170</dc:date>
    <dc:format>image/svg+xml</dc:format>
    <dc:creator>
     <cc:Agent>
      <dc:title>Matplotlib v3.3.2, https://matplotlib.org/</dc:title>
     </cc:Agent>
    </dc:creator>
   </cc:Work>
  </rdf:RDF>
 </metadata>
 <defs>
  <style type="text/css">*{stroke-linecap:butt;stroke-linejoin:round;}</style>
 </defs>
 <g id="figure_1">
  <g id="patch_1">
   <path d="M 0 288 
L 432 288 
L 432 0 
L 0 0 
z
" style="fill:#ffffff;"/>
  </g>
  <g id="axes_1">
   <g id="LineCollection_1">
    <path clip-path="url(#pa1e1e1aaac)" d="M 19.636364 274.909091 
L 82.818452 225.976943 
" style="fill:none;stroke:#000000;"/>
    <path clip-path="url(#pa1e1e1aaac)" d="M 82.818452 225.976943 
L 170.989153 156.875733 
" style="fill:none;stroke:#000000;"/>
    <path clip-path="url(#pa1e1e1aaac)" d="M 272.870083 143.467865 
L 170.989153 156.875733 
" style="fill:none;stroke:#000000;"/>
    <path clip-path="url(#pa1e1e1aaac)" d="M 272.870083 143.467865 
L 328.768774 82.43557 
" style="fill:none;stroke:#000000;"/>
    <path clip-path="url(#pa1e1e1aaac)" d="M 170.989153 156.875733 
L 89.79199 121.393284 
" style="fill:none;stroke:#000000;"/>
    <path clip-path="url(#pa1e1e1aaac)" d="M 170.989153 156.875733 
L 157.347137 224.770286 
" style="fill:none;stroke:#000000;"/>
    <path clip-path="url(#pa1e1e1aaac)" d="M 170.989153 156.875733 
L 134.141152 91.854511 
" style="fill:none;stroke:#000000;"/>
    <path clip-path="url(#pa1e1e1aaac)" d="M 170.989153 156.875733 
L 237.566415 90.297098 
" style="fill:none;stroke:#000000;"/>
    <path clip-path="url(#pa1e1e1aaac)" d="M 170.989153 156.875733 
L 254.449747 117.421298 
" style="fill:none;stroke:#000000;"/>
    <path clip-path="url(#pa1e1e1aaac)" d="M 170.989153 156.875733 
L 92.529963 168.059592 
" style="fill:none;stroke:#000000;"/>
    <path clip-path="url(#pa1e1e1aaac)" d="M 170.989153 156.875733 
L 214.254588 219.068666 
" style="fill:none;stroke:#000000;"/>
    <path clip-path="url(#pa1e1e1aaac)" d="M 237.566415 90.297098 
L 328.768774 82.43557 
" style="fill:none;stroke:#000000;"/>
    <path clip-path="url(#pa1e1e1aaac)" d="M 254.449747 117.421298 
L 328.768774 82.43557 
" style="fill:none;stroke:#000000;"/>
    <path clip-path="url(#pa1e1e1aaac)" d="M 406.231239 45.799721 
L 328.768774 82.43557 
" style="fill:none;stroke:#000000;"/>
    <path clip-path="url(#pa1e1e1aaac)" d="M 328.768774 82.43557 
L 412.363636 99.91354 
" style="fill:none;stroke:#000000;"/>
    <path clip-path="url(#pa1e1e1aaac)" d="M 328.768774 82.43557 
L 354.689664 13.090909 
" style="fill:none;stroke:#000000;"/>
   </g>
   <g id="text_1">
    <g id="patch_2">
     <path clip-path="url(#pa1e1e1aaac)" d="M 49.958063 261.341149 
L 62.096564 251.940338 
Q 64.468426 250.103419 62.631508 247.731557 
L 56.705533 240.07983 
Q 54.868615 237.707967 52.496753 239.544885 
L 40.358252 248.945697 
Q 37.98639 250.782615 39.823308 253.154477 
L 45.749282 260.806205 
Q 47.586201 263.178067 49.958063 261.341149 
z
" style="fill:#ffffff;stroke:#ffffff;stroke-linejoin:miter;"/>
    </g>
    <g clip-path="url(#pa1e1e1aaac)">
     <!-- ON -->
     <g transform="translate(46.84774 257.325042)rotate(-37.756433)scale(0.1 -0.1)">
      <defs>
       <path d="M 39.40625 66.21875 
Q 28.65625 66.21875 22.328125 58.203125 
Q 16.015625 50.203125 16.015625 36.375 
Q 16.015625 22.609375 22.328125 14.59375 
Q 28.65625 6.59375 39.40625 6.59375 
Q 50.140625 6.59375 56.421875 14.59375 
Q 62.703125 22.609375 62.703125 36.375 
Q 62.703125 50.203125 56.421875 58.203125 
Q 50.140625 66.21875 39.40625 66.21875 
z
M 39.40625 74.21875 
Q 54.734375 74.21875 63.90625 63.9375 
Q 73.09375 53.65625 73.09375 36.375 
Q 73.09375 19.140625 63.90625 8.859375 
Q 54.734375 -1.421875 39.40625 -1.421875 
Q 24.03125 -1.421875 14.8125 8.828125 
Q 5.609375 19.09375 5.609375 36.375 
Q 5.609375 53.65625 14.8125 63.9375 
Q 24.03125 74.21875 39.40625 74.21875 
z
" id="DejaVuSans-79"/>
       <path d="M 9.8125 72.90625 
L 23.09375 72.90625 
L 55.421875 11.921875 
L 55.421875 72.90625 
L 64.984375 72.90625 
L 64.984375 0 
L 51.703125 0 
L 19.390625 60.984375 
L 19.390625 0 
L 9.8125 0 
z
" id="DejaVuSans-78"/>
      </defs>
      <use xlink:href="#DejaVuSans-79"/>
      <use x="78.710938" xlink:href="#DejaVuSans-78"/>
     </g>
    </g>
   </g>
   <g id="text_2">
    <g id="patch_3">
     <path clip-path="url(#pa1e1e1aaac)" d="M 117.819088 208.505895 
L 145.659583 186.68672 
Q 148.020823 184.836167 146.17027 182.474927 
L 140.20031 174.857469 
Q 138.349757 172.496229 135.988517 174.346782 
L 108.148022 196.165956 
Q 105.786782 198.016509 107.637335 200.377749 
L 113.607295 207.995208 
Q 115.457848 210.356448 117.819088 208.505895 
z
" style="fill:#ffffff;stroke:#ffffff;stroke-linejoin:miter;"/>
    </g>
    <g clip-path="url(#pa1e1e1aaac)">
     <!-- next to -->
     <g transform="translate(114.685678 204.507774)rotate(-38.086537)scale(0.1 -0.1)">
      <defs>
       <path d="M 54.890625 33.015625 
L 54.890625 0 
L 45.90625 0 
L 45.90625 32.71875 
Q 45.90625 40.484375 42.875 44.328125 
Q 39.84375 48.1875 33.796875 48.1875 
Q 26.515625 48.1875 22.3125 43.546875 
Q 18.109375 38.921875 18.109375 30.90625 
L 18.109375 0 
L 9.078125 0 
L 9.078125 54.6875 
L 18.109375 54.6875 
L 18.109375 46.1875 
Q 21.34375 51.125 25.703125 53.5625 
Q 30.078125 56 35.796875 56 
Q 45.21875 56 50.046875 50.171875 
Q 54.890625 44.34375 54.890625 33.015625 
z
" id="DejaVuSans-110"/>
       <path d="M 56.203125 29.59375 
L 56.203125 25.203125 
L 14.890625 25.203125 
Q 15.484375 15.921875 20.484375 11.0625 
Q 25.484375 6.203125 34.421875 6.203125 
Q 39.59375 6.203125 44.453125 7.46875 
Q 49.3125 8.734375 54.109375 11.28125 
L 54.109375 2.78125 
Q 49.265625 0.734375 44.1875 -0.34375 
Q 39.109375 -1.421875 33.890625 -1.421875 
Q 20.796875 -1.421875 13.15625 6.1875 
Q 5.515625 13.8125 5.515625 26.8125 
Q 5.515625 40.234375 12.765625 48.109375 
Q 20.015625 56 32.328125 56 
Q 43.359375 56 49.78125 48.890625 
Q 56.203125 41.796875 56.203125 29.59375 
z
M 47.21875 32.234375 
Q 47.125 39.59375 43.09375 43.984375 
Q 39.0625 48.390625 32.421875 48.390625 
Q 24.90625 48.390625 20.390625 44.140625 
Q 15.875 39.890625 15.1875 32.171875 
z
" id="DejaVuSans-101"/>
       <path d="M 54.890625 54.6875 
L 35.109375 28.078125 
L 55.90625 0 
L 45.3125 0 
L 29.390625 21.484375 
L 13.484375 0 
L 2.875 0 
L 24.125 28.609375 
L 4.6875 54.6875 
L 15.28125 54.6875 
L 29.78125 35.203125 
L 44.28125 54.6875 
z
" id="DejaVuSans-120"/>
       <path d="M 18.3125 70.21875 
L 18.3125 54.6875 
L 36.8125 54.6875 
L 36.8125 47.703125 
L 18.3125 47.703125 
L 18.3125 18.015625 
Q 18.3125 11.328125 20.140625 9.421875 
Q 21.96875 7.515625 27.59375 7.515625 
L 36.8125 7.515625 
L 36.8125 0 
L 27.59375 0 
Q 17.1875 0 13.234375 3.875 
Q 9.28125 7.765625 9.28125 18.015625 
L 9.28125 47.703125 
L 2.6875 47.703125 
L 2.6875 54.6875 
L 9.28125 54.6875 
L 9.28125 70.21875 
z
" id="DejaVuSans-116"/>
       <path id="DejaVuSans-32"/>
       <path d="M 30.609375 48.390625 
Q 23.390625 48.390625 19.1875 42.75 
Q 14.984375 37.109375 14.984375 27.296875 
Q 14.984375 17.484375 19.15625 11.84375 
Q 23.34375 6.203125 30.609375 6.203125 
Q 37.796875 6.203125 41.984375 11.859375 
Q 46.1875 17.53125 46.1875 27.296875 
Q 46.1875 37.015625 41.984375 42.703125 
Q 37.796875 48.390625 30.609375 48.390625 
z
M 30.609375 56 
Q 42.328125 56 49.015625 48.375 
Q 55.71875 40.765625 55.71875 27.296875 
Q 55.71875 13.875 49.015625 6.21875 
Q 42.328125 -1.421875 30.609375 -1.421875 
Q 18.84375 -1.421875 12.171875 6.21875 
Q 5.515625 13.875 5.515625 27.296875 
Q 5.515625 40.765625 12.171875 48.375 
Q 18.84375 56 30.609375 56 
z
" id="DejaVuSans-111"/>
      </defs>
      <use xlink:href="#DejaVuSans-110"/>
      <use x="63.378906" xlink:href="#DejaVuSans-101"/>
      <use x="123.152344" xlink:href="#DejaVuSans-120"/>
      <use x="182.332031" xlink:href="#DejaVuSans-116"/>
      <use x="221.541016" xlink:href="#DejaVuSans-32"/>
      <use x="253.328125" xlink:href="#DejaVuSans-116"/>
      <use x="292.537109" xlink:href="#DejaVuSans-111"/>
     </g>
    </g>
   </g>
   <g id="text_3">
    <g id="patch_4">
     <path clip-path="url(#pa1e1e1aaac)" d="M 199.070865 161.086742 
L 246.834025 154.800952 
Q 249.808379 154.409517 249.416944 151.435164 
L 248.154159 141.839775 
Q 247.762724 138.865422 244.788371 139.256856 
L 197.02521 145.542646 
Q 194.050857 145.934081 194.442292 148.908435 
L 195.705077 158.503823 
Q 196.096511 161.478177 199.070865 161.086742 
z
" style="fill:#ffffff;stroke:#ffffff;stroke-linejoin:miter;"/>
    </g>
    <g clip-path="url(#pa1e1e1aaac)">
     <!-- WEARING -->
     <g transform="translate(198.408076 156.05048)rotate(-7.49723)scale(0.1 -0.1)">
      <defs>
       <path d="M 3.328125 72.90625 
L 13.28125 72.90625 
L 28.609375 11.28125 
L 43.890625 72.90625 
L 54.984375 72.90625 
L 70.3125 11.28125 
L 85.59375 72.90625 
L 95.609375 72.90625 
L 77.296875 0 
L 64.890625 0 
L 49.515625 63.28125 
L 33.984375 0 
L 21.578125 0 
z
" id="DejaVuSans-87"/>
       <path d="M 9.8125 72.90625 
L 55.90625 72.90625 
L 55.90625 64.59375 
L 19.671875 64.59375 
L 19.671875 43.015625 
L 54.390625 43.015625 
L 54.390625 34.71875 
L 19.671875 34.71875 
L 19.671875 8.296875 
L 56.78125 8.296875 
L 56.78125 0 
L 9.8125 0 
z
" id="DejaVuSans-69"/>
       <path d="M 34.1875 63.1875 
L 20.796875 26.90625 
L 47.609375 26.90625 
z
M 28.609375 72.90625 
L 39.796875 72.90625 
L 67.578125 0 
L 57.328125 0 
L 50.6875 18.703125 
L 17.828125 18.703125 
L 11.1875 0 
L 0.78125 0 
z
" id="DejaVuSans-65"/>
       <path d="M 44.390625 34.1875 
Q 47.5625 33.109375 50.5625 29.59375 
Q 53.5625 26.078125 56.59375 19.921875 
L 66.609375 0 
L 56 0 
L 46.6875 18.703125 
Q 43.0625 26.03125 39.671875 28.421875 
Q 36.28125 30.8125 30.421875 30.8125 
L 19.671875 30.8125 
L 19.671875 0 
L 9.8125 0 
L 9.8125 72.90625 
L 32.078125 72.90625 
Q 44.578125 72.90625 50.734375 67.671875 
Q 56.890625 62.453125 56.890625 51.90625 
Q 56.890625 45.015625 53.6875 40.46875 
Q 50.484375 35.9375 44.390625 34.1875 
z
M 19.671875 64.796875 
L 19.671875 38.921875 
L 32.078125 38.921875 
Q 39.203125 38.921875 42.84375 42.21875 
Q 46.484375 45.515625 46.484375 51.90625 
Q 46.484375 58.296875 42.84375 61.546875 
Q 39.203125 64.796875 32.078125 64.796875 
z
" id="DejaVuSans-82"/>
       <path d="M 9.8125 72.90625 
L 19.671875 72.90625 
L 19.671875 0 
L 9.8125 0 
z
" id="DejaVuSans-73"/>
       <path d="M 59.515625 10.40625 
L 59.515625 29.984375 
L 43.40625 29.984375 
L 43.40625 38.09375 
L 69.28125 38.09375 
L 69.28125 6.78125 
Q 63.578125 2.734375 56.6875 0.65625 
Q 49.8125 -1.421875 42 -1.421875 
Q 24.90625 -1.421875 15.25 8.5625 
Q 5.609375 18.5625 5.609375 36.375 
Q 5.609375 54.25 15.25 64.234375 
Q 24.90625 74.21875 42 74.21875 
Q 49.125 74.21875 55.546875 72.453125 
Q 61.96875 70.703125 67.390625 67.28125 
L 67.390625 56.78125 
Q 61.921875 61.421875 55.765625 63.765625 
Q 49.609375 66.109375 42.828125 66.109375 
Q 29.4375 66.109375 22.71875 58.640625 
Q 16.015625 51.171875 16.015625 36.375 
Q 16.015625 21.625 22.71875 14.15625 
Q 29.4375 6.6875 42.828125 6.6875 
Q 48.046875 6.6875 52.140625 7.59375 
Q 56.25 8.5 59.515625 10.40625 
z
" id="DejaVuSans-71"/>
      </defs>
      <use xlink:href="#DejaVuSans-87"/>
      <use x="98.876953" xlink:href="#DejaVuSans-69"/>
      <use x="162.060547" xlink:href="#DejaVuSans-65"/>
      <use x="230.46875" xlink:href="#DejaVuSans-82"/>
      <use x="299.951172" xlink:href="#DejaVuSans-73"/>
      <use x="329.443359" xlink:href="#DejaVuSans-78"/>
      <use x="404.248047" xlink:href="#DejaVuSans-71"/>
     </g>
    </g>
   </g>
   <g id="text_4">
    <g id="patch_5">
     <path clip-path="url(#pa1e1e1aaac)" d="M 290.331279 136.009412 
L 322.869261 100.483219 
Q 324.895497 98.270898 322.683176 96.244662 
L 315.546135 89.707938 
Q 313.333814 87.681702 311.307577 89.894023 
L 278.769596 125.420216 
Q 276.743359 127.632537 278.955681 129.658774 
L 286.092721 136.195497 
Q 288.305043 138.221734 290.331279 136.009412 
z
" style="fill:#ffffff;stroke:#ffffff;stroke-linejoin:miter;"/>
    </g>
    <g clip-path="url(#pa1e1e1aaac)">
     <!-- WEARING -->
     <g transform="translate(286.585312 132.57853)rotate(-47.513834)scale(0.1 -0.1)">
      <use xlink:href="#DejaVuSans-87"/>
      <use x="98.876953" xlink:href="#DejaVuSans-69"/>
      <use x="162.060547" xlink:href="#DejaVuSans-65"/>
      <use x="230.46875" xlink:href="#DejaVuSans-82"/>
      <use x="299.951172" xlink:href="#DejaVuSans-73"/>
      <use x="329.443359" xlink:href="#DejaVuSans-78"/>
      <use x="404.248047" xlink:href="#DejaVuSans-71"/>
     </g>
    </g>
   </g>
   <g id="text_5">
    <g id="patch_6">
     <path clip-path="url(#pa1e1e1aaac)" d="M 104.273944 136.276632 
L 150.229247 156.358697 
Q 152.978232 157.559979 154.179515 154.810994 
L 158.054902 145.942653 
Q 159.256185 143.193668 156.507199 141.992385 
L 110.551896 121.91032 
Q 107.802911 120.709038 106.601629 123.458023 
L 102.726241 132.326364 
Q 101.524959 135.075349 104.273944 136.276632 
z
" style="fill:#ffffff;stroke:#ffffff;stroke-linejoin:miter;"/>
    </g>
    <g clip-path="url(#pa1e1e1aaac)">
     <!-- parked on -->
     <g transform="translate(106.30799 131.62197)rotate(-336.395093)scale(0.1 -0.1)">
      <defs>
       <path d="M 18.109375 8.203125 
L 18.109375 -20.796875 
L 9.078125 -20.796875 
L 9.078125 54.6875 
L 18.109375 54.6875 
L 18.109375 46.390625 
Q 20.953125 51.265625 25.265625 53.625 
Q 29.59375 56 35.59375 56 
Q 45.5625 56 51.78125 48.09375 
Q 58.015625 40.1875 58.015625 27.296875 
Q 58.015625 14.40625 51.78125 6.484375 
Q 45.5625 -1.421875 35.59375 -1.421875 
Q 29.59375 -1.421875 25.265625 0.953125 
Q 20.953125 3.328125 18.109375 8.203125 
z
M 48.6875 27.296875 
Q 48.6875 37.203125 44.609375 42.84375 
Q 40.53125 48.484375 33.40625 48.484375 
Q 26.265625 48.484375 22.1875 42.84375 
Q 18.109375 37.203125 18.109375 27.296875 
Q 18.109375 17.390625 22.1875 11.75 
Q 26.265625 6.109375 33.40625 6.109375 
Q 40.53125 6.109375 44.609375 11.75 
Q 48.6875 17.390625 48.6875 27.296875 
z
" id="DejaVuSans-112"/>
       <path d="M 34.28125 27.484375 
Q 23.390625 27.484375 19.1875 25 
Q 14.984375 22.515625 14.984375 16.5 
Q 14.984375 11.71875 18.140625 8.90625 
Q 21.296875 6.109375 26.703125 6.109375 
Q 34.1875 6.109375 38.703125 11.40625 
Q 43.21875 16.703125 43.21875 25.484375 
L 43.21875 27.484375 
z
M 52.203125 31.203125 
L 52.203125 0 
L 43.21875 0 
L 43.21875 8.296875 
Q 40.140625 3.328125 35.546875 0.953125 
Q 30.953125 -1.421875 24.3125 -1.421875 
Q 15.921875 -1.421875 10.953125 3.296875 
Q 6 8.015625 6 15.921875 
Q 6 25.140625 12.171875 29.828125 
Q 18.359375 34.515625 30.609375 34.515625 
L 43.21875 34.515625 
L 43.21875 35.40625 
Q 43.21875 41.609375 39.140625 45 
Q 35.0625 48.390625 27.6875 48.390625 
Q 23 48.390625 18.546875 47.265625 
Q 14.109375 46.140625 10.015625 43.890625 
L 10.015625 52.203125 
Q 14.9375 54.109375 19.578125 55.046875 
Q 24.21875 56 28.609375 56 
Q 40.484375 56 46.34375 49.84375 
Q 52.203125 43.703125 52.203125 31.203125 
z
" id="DejaVuSans-97"/>
       <path d="M 41.109375 46.296875 
Q 39.59375 47.171875 37.8125 47.578125 
Q 36.03125 48 33.890625 48 
Q 26.265625 48 22.1875 43.046875 
Q 18.109375 38.09375 18.109375 28.8125 
L 18.109375 0 
L 9.078125 0 
L 9.078125 54.6875 
L 18.109375 54.6875 
L 18.109375 46.1875 
Q 20.953125 51.171875 25.484375 53.578125 
Q 30.03125 56 36.53125 56 
Q 37.453125 56 38.578125 55.875 
Q 39.703125 55.765625 41.0625 55.515625 
z
" id="DejaVuSans-114"/>
       <path d="M 9.078125 75.984375 
L 18.109375 75.984375 
L 18.109375 31.109375 
L 44.921875 54.6875 
L 56.390625 54.6875 
L 27.390625 29.109375 
L 57.625 0 
L 45.90625 0 
L 18.109375 26.703125 
L 18.109375 0 
L 9.078125 0 
z
" id="DejaVuSans-107"/>
       <path d="M 45.40625 46.390625 
L 45.40625 75.984375 
L 54.390625 75.984375 
L 54.390625 0 
L 45.40625 0 
L 45.40625 8.203125 
Q 42.578125 3.328125 38.25 0.953125 
Q 33.9375 -1.421875 27.875 -1.421875 
Q 17.96875 -1.421875 11.734375 6.484375 
Q 5.515625 14.40625 5.515625 27.296875 
Q 5.515625 40.1875 11.734375 48.09375 
Q 17.96875 56 27.875 56 
Q 33.9375 56 38.25 53.625 
Q 42.578125 51.265625 45.40625 46.390625 
z
M 14.796875 27.296875 
Q 14.796875 17.390625 18.875 11.75 
Q 22.953125 6.109375 30.078125 6.109375 
Q 37.203125 6.109375 41.296875 11.75 
Q 45.40625 17.390625 45.40625 27.296875 
Q 45.40625 37.203125 41.296875 42.84375 
Q 37.203125 48.484375 30.078125 48.484375 
Q 22.953125 48.484375 18.875 42.84375 
Q 14.796875 37.203125 14.796875 27.296875 
z
" id="DejaVuSans-100"/>
      </defs>
      <use xlink:href="#DejaVuSans-112"/>
      <use x="63.476562" xlink:href="#DejaVuSans-97"/>
      <use x="124.755859" xlink:href="#DejaVuSans-114"/>
      <use x="165.869141" xlink:href="#DejaVuSans-107"/>
      <use x="220.154297" xlink:href="#DejaVuSans-101"/>
      <use x="281.677734" xlink:href="#DejaVuSans-100"/>
      <use x="345.154297" xlink:href="#DejaVuSans-32"/>
      <use x="376.941406" xlink:href="#DejaVuSans-111"/>
      <use x="438.123047" xlink:href="#DejaVuSans-110"/>
     </g>
    </g>
   </g>
   <g id="text_6">
    <g id="patch_7">
     <path clip-path="url(#pa1e1e1aaac)" d="M 170.341378 199.893385 
L 173.365825 184.841103 
Q 173.956802 181.899888 171.015586 181.308912 
L 161.527104 179.402396 
Q 158.585889 178.811419 157.994912 181.752634 
L 154.970465 196.804915 
Q 154.379488 199.746131 157.320704 200.337107 
L 166.809186 202.243623 
Q 169.750401 202.8346 170.341378 199.893385 
z
" style="fill:#ffffff;stroke:#ffffff;stroke-linejoin:miter;"/>
    </g>
    <g clip-path="url(#pa1e1e1aaac)">
     <!-- ON -->
     <g transform="translate(165.361227 198.892726)rotate(-78.638871)scale(0.1 -0.1)">
      <use xlink:href="#DejaVuSans-79"/>
      <use x="78.710938" xlink:href="#DejaVuSans-78"/>
     </g>
    </g>
   </g>
   <g id="text_7">
    <g id="patch_8">
     <path clip-path="url(#pa1e1e1aaac)" d="M 141.960266 121.551425 
L 149.52996 134.908751 
Q 151.009078 137.518772 153.619099 136.039654 
L 162.039136 131.267958 
Q 164.649157 129.78884 163.170039 127.178819 
L 155.600345 113.821492 
Q 154.121227 111.211471 151.511206 112.690589 
L 143.091169 117.462286 
Q 140.481148 118.941403 141.960266 121.551425 
z
" style="fill:#ffffff;stroke:#ffffff;stroke-linejoin:miter;"/>
    </g>
    <g clip-path="url(#pa1e1e1aaac)">
     <!-- ON -->
     <g transform="translate(146.37963 119.046939)rotate(-299.540544)scale(0.1 -0.1)">
      <use xlink:href="#DejaVuSans-79"/>
      <use x="78.710938" xlink:href="#DejaVuSans-78"/>
     </g>
    </g>
   </g>
   <g id="text_8">
    <g id="patch_9">
     <path clip-path="url(#pa1e1e1aaac)" d="M 197.693034 141.257524 
L 221.948756 117.001301 
Q 224.070055 114.879959 221.948712 112.75866 
L 215.105174 105.915263 
Q 212.983832 103.793965 210.862533 105.915307 
L 186.606811 130.171529 
Q 184.485513 132.292872 186.606855 134.41417 
L 193.450393 141.257567 
Q 195.571736 143.378866 197.693034 141.257524 
z
" style="fill:#ffffff;stroke:#ffffff;stroke-linejoin:miter;"/>
    </g>
    <g clip-path="url(#pa1e1e1aaac)">
     <!-- behind -->
     <g transform="translate(194.101116 137.665679)rotate(-45.000591)scale(0.1 -0.1)">
      <defs>
       <path d="M 48.6875 27.296875 
Q 48.6875 37.203125 44.609375 42.84375 
Q 40.53125 48.484375 33.40625 48.484375 
Q 26.265625 48.484375 22.1875 42.84375 
Q 18.109375 37.203125 18.109375 27.296875 
Q 18.109375 17.390625 22.1875 11.75 
Q 26.265625 6.109375 33.40625 6.109375 
Q 40.53125 6.109375 44.609375 11.75 
Q 48.6875 17.390625 48.6875 27.296875 
z
M 18.109375 46.390625 
Q 20.953125 51.265625 25.265625 53.625 
Q 29.59375 56 35.59375 56 
Q 45.5625 56 51.78125 48.09375 
Q 58.015625 40.1875 58.015625 27.296875 
Q 58.015625 14.40625 51.78125 6.484375 
Q 45.5625 -1.421875 35.59375 -1.421875 
Q 29.59375 -1.421875 25.265625 0.953125 
Q 20.953125 3.328125 18.109375 8.203125 
L 18.109375 0 
L 9.078125 0 
L 9.078125 75.984375 
L 18.109375 75.984375 
z
" id="DejaVuSans-98"/>
       <path d="M 54.890625 33.015625 
L 54.890625 0 
L 45.90625 0 
L 45.90625 32.71875 
Q 45.90625 40.484375 42.875 44.328125 
Q 39.84375 48.1875 33.796875 48.1875 
Q 26.515625 48.1875 22.3125 43.546875 
Q 18.109375 38.921875 18.109375 30.90625 
L 18.109375 0 
L 9.078125 0 
L 9.078125 75.984375 
L 18.109375 75.984375 
L 18.109375 46.1875 
Q 21.34375 51.125 25.703125 53.5625 
Q 30.078125 56 35.796875 56 
Q 45.21875 56 50.046875 50.171875 
Q 54.890625 44.34375 54.890625 33.015625 
z
" id="DejaVuSans-104"/>
       <path d="M 9.421875 54.6875 
L 18.40625 54.6875 
L 18.40625 0 
L 9.421875 0 
z
M 9.421875 75.984375 
L 18.40625 75.984375 
L 18.40625 64.59375 
L 9.421875 64.59375 
z
" id="DejaVuSans-105"/>
      </defs>
      <use xlink:href="#DejaVuSans-98"/>
      <use x="63.476562" xlink:href="#DejaVuSans-101"/>
      <use x="125" xlink:href="#DejaVuSans-104"/>
      <use x="188.378906" xlink:href="#DejaVuSans-105"/>
      <use x="216.162109" xlink:href="#DejaVuSans-110"/>
      <use x="279.541016" xlink:href="#DejaVuSans-100"/>
     </g>
    </g>
   </g>
   <g id="text_9">
    <g id="patch_10">
     <path clip-path="url(#pa1e1e1aaac)" d="M 205.795105 149.09272 
L 226.344353 139.378447 
Q 229.056566 138.096299 227.774418 135.384087 
L 223.638156 126.634376 
Q 222.356008 123.922163 219.643795 125.204311 
L 199.094547 134.918584 
Q 196.382335 136.200732 197.664482 138.912944 
L 201.800744 147.662655 
Q 203.082892 150.374868 205.795105 149.09272 
z
" style="fill:#ffffff;stroke:#ffffff;stroke-linejoin:miter;"/>
    </g>
    <g clip-path="url(#pa1e1e1aaac)">
     <!-- near -->
     <g transform="translate(203.624135 144.500322)rotate(-25.301567)scale(0.1 -0.1)">
      <use xlink:href="#DejaVuSans-110"/>
      <use x="63.378906" xlink:href="#DejaVuSans-101"/>
      <use x="124.902344" xlink:href="#DejaVuSans-97"/>
      <use x="186.181641" xlink:href="#DejaVuSans-114"/>
     </g>
    </g>
   </g>
   <g id="text_10">
    <g id="patch_11">
     <path clip-path="url(#pa1e1e1aaac)" d="M 108.040939 173.766903 
L 157.69063 166.689655 
Q 160.660608 166.266303 160.237257 163.296324 
L 158.871507 153.715049 
Q 158.448155 150.745071 155.478177 151.168422 
L 105.828486 158.24567 
Q 102.858507 158.669022 103.281859 161.639001 
L 104.647609 171.220276 
Q 105.07096 174.190254 108.040939 173.766903 
z
" style="fill:#ffffff;stroke:#ffffff;stroke-linejoin:miter;"/>
    </g>
    <g clip-path="url(#pa1e1e1aaac)">
     <!-- parked on -->
     <g transform="translate(107.324108 168.738048)rotate(-8.112499)scale(0.1 -0.1)">
      <use xlink:href="#DejaVuSans-112"/>
      <use x="63.476562" xlink:href="#DejaVuSans-97"/>
      <use x="124.755859" xlink:href="#DejaVuSans-114"/>
      <use x="165.869141" xlink:href="#DejaVuSans-107"/>
      <use x="220.154297" xlink:href="#DejaVuSans-101"/>
      <use x="281.677734" xlink:href="#DejaVuSans-100"/>
      <use x="345.154297" xlink:href="#DejaVuSans-32"/>
      <use x="376.941406" xlink:href="#DejaVuSans-111"/>
      <use x="438.123047" xlink:href="#DejaVuSans-110"/>
     </g>
    </g>
   </g>
   <g id="text_11">
    <g id="patch_12">
     <path clip-path="url(#pa1e1e1aaac)" d="M 181.802915 186.147172 
L 190.570647 198.750557 
Q 192.283862 201.213258 194.746563 199.500044 
L 202.691339 193.973142 
Q 205.15404 192.259928 203.440825 189.797227 
L 194.673094 177.193841 
Q 192.959879 174.73114 190.497178 176.444355 
L 182.552402 181.971256 
Q 180.089701 183.684471 181.802915 186.147172 
z
" style="fill:#ffffff;stroke:#ffffff;stroke-linejoin:miter;"/>
    </g>
    <g clip-path="url(#pa1e1e1aaac)">
     <!-- ON -->
     <g transform="translate(185.972833 183.246307)rotate(-304.824977)scale(0.1 -0.1)">
      <use xlink:href="#DejaVuSans-79"/>
      <use x="78.710938" xlink:href="#DejaVuSans-78"/>
     </g>
    </g>
   </g>
   <g id="text_12">
    <g id="patch_13">
     <path clip-path="url(#pa1e1e1aaac)" d="M 261.504113 96.10183 
L 306.177516 92.251039 
Q 309.166433 91.993399 308.908792 89.004482 
L 308.077632 79.362113 
Q 307.819991 76.373197 304.831075 76.630838 
L 260.157672 80.481628 
Q 257.168756 80.739269 257.426396 83.728185 
L 258.257556 93.370554 
Q 258.515197 96.359471 261.504113 96.10183 
z
" style="fill:#ffffff;stroke:#ffffff;stroke-linejoin:miter;"/>
    </g>
    <g clip-path="url(#pa1e1e1aaac)">
     <!-- on top of -->
     <g transform="translate(261.067869 91.040909)rotate(-4.926645)scale(0.1 -0.1)">
      <defs>
       <path d="M 37.109375 75.984375 
L 37.109375 68.5 
L 28.515625 68.5 
Q 23.6875 68.5 21.796875 66.546875 
Q 19.921875 64.59375 19.921875 59.515625 
L 19.921875 54.6875 
L 34.71875 54.6875 
L 34.71875 47.703125 
L 19.921875 47.703125 
L 19.921875 0 
L 10.890625 0 
L 10.890625 47.703125 
L 2.296875 47.703125 
L 2.296875 54.6875 
L 10.890625 54.6875 
L 10.890625 58.5 
Q 10.890625 67.625 15.140625 71.796875 
Q 19.390625 75.984375 28.609375 75.984375 
z
" id="DejaVuSans-102"/>
      </defs>
      <use xlink:href="#DejaVuSans-111"/>
      <use x="61.181641" xlink:href="#DejaVuSans-110"/>
      <use x="124.560547" xlink:href="#DejaVuSans-32"/>
      <use x="156.347656" xlink:href="#DejaVuSans-116"/>
      <use x="195.556641" xlink:href="#DejaVuSans-111"/>
      <use x="256.738281" xlink:href="#DejaVuSans-112"/>
      <use x="320.214844" xlink:href="#DejaVuSans-32"/>
      <use x="352.001953" xlink:href="#DejaVuSans-111"/>
      <use x="413.183594" xlink:href="#DejaVuSans-102"/>
     </g>
    </g>
   </g>
   <g id="text_13">
    <g id="patch_14">
     <path clip-path="url(#pa1e1e1aaac)" d="M 279.429969 114.326068 
L 310.466136 99.715773 
Q 313.180423 98.438021 311.902671 95.723735 
L 307.78059 86.967334 
Q 306.502838 84.253048 303.788552 85.5308 
L 272.752384 100.141095 
Q 270.038098 101.418847 271.31585 104.133133 
L 275.437931 112.889534 
Q 276.715683 115.60382 279.429969 114.326068 
z
" style="fill:#ffffff;stroke:#ffffff;stroke-linejoin:miter;"/>
    </g>
    <g clip-path="url(#pa1e1e1aaac)">
     <!-- behind -->
     <g transform="translate(277.266443 109.730159)rotate(-25.20874)scale(0.1 -0.1)">
      <use xlink:href="#DejaVuSans-98"/>
      <use x="63.476562" xlink:href="#DejaVuSans-101"/>
      <use x="125" xlink:href="#DejaVuSans-104"/>
      <use x="188.378906" xlink:href="#DejaVuSans-105"/>
      <use x="216.162109" xlink:href="#DejaVuSans-110"/>
      <use x="279.541016" xlink:href="#DejaVuSans-100"/>
     </g>
    </g>
   </g>
   <g id="text_14">
    <g id="patch_15">
     <path clip-path="url(#pa1e1e1aaac)" d="M 358.326282 77.127937 
L 383.376819 65.280294 
Q 386.088802 63.997662 384.80617 61.285678 
L 380.668347 52.536706 
Q 379.385715 49.824722 376.673731 51.107354 
L 351.623194 62.954998 
Q 348.911211 64.237629 350.193842 66.949613 
L 354.331666 75.698586 
Q 355.614298 78.410569 358.326282 77.127937 
z
" style="fill:#ffffff;stroke:#ffffff;stroke-linejoin:miter;"/>
    </g>
    <g clip-path="url(#pa1e1e1aaac)">
     <!-- along -->
     <g transform="translate(356.154492 72.535928)rotate(-25.311794)scale(0.1 -0.1)">
      <defs>
       <path d="M 9.421875 75.984375 
L 18.40625 75.984375 
L 18.40625 0 
L 9.421875 0 
z
" id="DejaVuSans-108"/>
       <path d="M 45.40625 27.984375 
Q 45.40625 37.75 41.375 43.109375 
Q 37.359375 48.484375 30.078125 48.484375 
Q 22.859375 48.484375 18.828125 43.109375 
Q 14.796875 37.75 14.796875 27.984375 
Q 14.796875 18.265625 18.828125 12.890625 
Q 22.859375 7.515625 30.078125 7.515625 
Q 37.359375 7.515625 41.375 12.890625 
Q 45.40625 18.265625 45.40625 27.984375 
z
M 54.390625 6.78125 
Q 54.390625 -7.171875 48.1875 -13.984375 
Q 42 -20.796875 29.203125 -20.796875 
Q 24.46875 -20.796875 20.265625 -20.09375 
Q 16.0625 -19.390625 12.109375 -17.921875 
L 12.109375 -9.1875 
Q 16.0625 -11.328125 19.921875 -12.34375 
Q 23.78125 -13.375 27.78125 -13.375 
Q 36.625 -13.375 41.015625 -8.765625 
Q 45.40625 -4.15625 45.40625 5.171875 
L 45.40625 9.625 
Q 42.625 4.78125 38.28125 2.390625 
Q 33.9375 0 27.875 0 
Q 17.828125 0 11.671875 7.65625 
Q 5.515625 15.328125 5.515625 27.984375 
Q 5.515625 40.671875 11.671875 48.328125 
Q 17.828125 56 27.875 56 
Q 33.9375 56 38.28125 53.609375 
Q 42.625 51.21875 45.40625 46.390625 
L 45.40625 54.6875 
L 54.390625 54.6875 
z
" id="DejaVuSans-103"/>
      </defs>
      <use xlink:href="#DejaVuSans-97"/>
      <use x="61.279297" xlink:href="#DejaVuSans-108"/>
      <use x="89.0625" xlink:href="#DejaVuSans-111"/>
      <use x="150.244141" xlink:href="#DejaVuSans-110"/>
      <use x="213.623047" xlink:href="#DejaVuSans-103"/>
     </g>
    </g>
   </g>
   <g id="text_15">
    <g id="patch_16">
     <path clip-path="url(#pa1e1e1aaac)" d="M 362.958136 97.592433 
L 374.965681 100.102964 
Q 377.902184 100.716926 378.516146 97.780423 
L 380.496815 88.307142 
Q 381.110777 85.370639 378.174274 84.756677 
L 366.16673 82.246146 
Q 363.230227 81.632183 362.616264 84.568686 
L 360.635596 94.041967 
Q 360.021633 96.97847 362.958136 97.592433 
z
" style="fill:#ffffff;stroke:#ffffff;stroke-linejoin:miter;"/>
    </g>
    <g clip-path="url(#pa1e1e1aaac)">
     <!-- by -->
     <g transform="translate(363.997715 92.62026)rotate(-348.190745)scale(0.1 -0.1)">
      <defs>
       <path d="M 32.171875 -5.078125 
Q 28.375 -14.84375 24.75 -17.8125 
Q 21.140625 -20.796875 15.09375 -20.796875 
L 7.90625 -20.796875 
L 7.90625 -13.28125 
L 13.1875 -13.28125 
Q 16.890625 -13.28125 18.9375 -11.515625 
Q 21 -9.765625 23.484375 -3.21875 
L 25.09375 0.875 
L 2.984375 54.6875 
L 12.5 54.6875 
L 29.59375 11.921875 
L 46.6875 54.6875 
L 56.203125 54.6875 
z
" id="DejaVuSans-121"/>
      </defs>
      <use xlink:href="#DejaVuSans-98"/>
      <use x="63.476562" xlink:href="#DejaVuSans-121"/>
     </g>
    </g>
   </g>
   <g id="text_16">
    <g id="patch_17">
     <path clip-path="url(#pa1e1e1aaac)" d="M 345.358155 60.443572 
L 352.785964 40.572384 
Q 353.836372 37.762288 351.026276 36.71188 
L 341.960787 33.323219 
Q 339.150691 32.272811 338.100282 35.082907 
L 330.672474 54.954095 
Q 329.622065 57.764191 332.432162 58.8146 
L 341.497651 62.20326 
Q 344.307747 63.253669 345.358155 60.443572 
z
" style="fill:#ffffff;stroke:#ffffff;stroke-linejoin:miter;"/>
    </g>
    <g clip-path="url(#pa1e1e1aaac)">
     <!-- with -->
     <g transform="translate(340.600018 58.66499)rotate(-69.504361)scale(0.1 -0.1)">
      <defs>
       <path d="M 4.203125 54.6875 
L 13.1875 54.6875 
L 24.421875 12.015625 
L 35.59375 54.6875 
L 46.1875 54.6875 
L 57.421875 12.015625 
L 68.609375 54.6875 
L 77.59375 54.6875 
L 63.28125 0 
L 52.6875 0 
L 40.921875 44.828125 
L 29.109375 0 
L 18.5 0 
z
" id="DejaVuSans-119"/>
      </defs>
      <use xlink:href="#DejaVuSans-119"/>
      <use x="81.787109" xlink:href="#DejaVuSans-105"/>
      <use x="109.570312" xlink:href="#DejaVuSans-116"/>
      <use x="148.779297" xlink:href="#DejaVuSans-104"/>
     </g>
    </g>
   </g>
   <g id="PathCollection_1">
    <defs>
     <path d="M 0 8.660254 
C 2.296726 8.660254 4.499694 7.747755 6.123724 6.123724 
C 7.747755 4.499694 8.660254 2.296726 8.660254 0 
C 8.660254 -2.296726 7.747755 -4.499694 6.123724 -6.123724 
C 4.499694 -7.747755 2.296726 -8.660254 0 -8.660254 
C -2.296726 -8.660254 -4.499694 -7.747755 -6.123724 -6.123724 
C -7.747755 -4.499694 -8.660254 -2.296726 -8.660254 0 
C -8.660254 2.296726 -7.747755 4.499694 -6.123724 6.123724 
C -4.499694 7.747755 -2.296726 8.660254 0 8.660254 
z
" id="m7cd6b16488" style="stroke:#1f78b4;"/>
    </defs>
    <g clip-path="url(#pa1e1e1aaac)">
     <use style="fill:#1f78b4;stroke:#1f78b4;" x="19.636364" xlink:href="#m7cd6b16488" y="274.909091"/>
     <use style="fill:#1f78b4;stroke:#1f78b4;" x="82.818452" xlink:href="#m7cd6b16488" y="225.976943"/>
     <use style="fill:#1f78b4;stroke:#1f78b4;" x="272.870083" xlink:href="#m7cd6b16488" y="143.467865"/>
     <use style="fill:#1f78b4;stroke:#1f78b4;" x="170.989153" xlink:href="#m7cd6b16488" y="156.875733"/>
     <use style="fill:#1f78b4;stroke:#1f78b4;" x="89.79199" xlink:href="#m7cd6b16488" y="121.393284"/>
     <use style="fill:#1f78b4;stroke:#1f78b4;" x="157.347137" xlink:href="#m7cd6b16488" y="224.770286"/>
     <use style="fill:#1f78b4;stroke:#1f78b4;" x="134.141152" xlink:href="#m7cd6b16488" y="91.854511"/>
     <use style="fill:#1f78b4;stroke:#1f78b4;" x="237.566415" xlink:href="#m7cd6b16488" y="90.297098"/>
     <use style="fill:#1f78b4;stroke:#1f78b4;" x="254.449747" xlink:href="#m7cd6b16488" y="117.421298"/>
     <use style="fill:#1f78b4;stroke:#1f78b4;" x="92.529963" xlink:href="#m7cd6b16488" y="168.059592"/>
     <use style="fill:#1f78b4;stroke:#1f78b4;" x="214.254588" xlink:href="#m7cd6b16488" y="219.068666"/>
     <use style="fill:#1f78b4;stroke:#1f78b4;" x="406.231239" xlink:href="#m7cd6b16488" y="45.799721"/>
     <use style="fill:#1f78b4;stroke:#1f78b4;" x="328.768774" xlink:href="#m7cd6b16488" y="82.43557"/>
     <use style="fill:#1f78b4;stroke:#1f78b4;" x="412.363636" xlink:href="#m7cd6b16488" y="99.91354"/>
     <use style="fill:#1f78b4;stroke:#1f78b4;" x="354.689664" xlink:href="#m7cd6b16488" y="13.090909"/>
    </g>
   </g>
   <g id="text_17">
    <g clip-path="url(#pa1e1e1aaac)">
     <!-- shade -->
     <g transform="translate(-0.619261 278.220341)scale(0.12 -0.12)">
      <defs>
       <path d="M 51.125 52.984375 
L 51.125 39.703125 
Q 45.515625 42.046875 40.28125 43.21875 
Q 35.0625 44.390625 30.421875 44.390625 
Q 25.4375 44.390625 23.015625 43.140625 
Q 20.609375 41.890625 20.609375 39.3125 
Q 20.609375 37.203125 22.4375 36.078125 
Q 24.265625 34.96875 29 34.421875 
L 32.078125 33.984375 
Q 45.515625 32.28125 50.140625 28.375 
Q 54.78125 24.46875 54.78125 16.109375 
Q 54.78125 7.375 48.328125 2.96875 
Q 41.890625 -1.421875 29.109375 -1.421875 
Q 23.6875 -1.421875 17.890625 -0.5625 
Q 12.109375 0.296875 6 2 
L 6 15.28125 
Q 11.234375 12.75 16.71875 11.46875 
Q 22.21875 10.203125 27.875 10.203125 
Q 33.015625 10.203125 35.59375 11.609375 
Q 38.1875 13.03125 38.1875 15.828125 
Q 38.1875 18.171875 36.40625 19.3125 
Q 34.625 20.453125 29.296875 21.09375 
L 26.21875 21.484375 
Q 14.546875 22.953125 9.859375 26.90625 
Q 5.171875 30.859375 5.171875 38.921875 
Q 5.171875 47.609375 11.125 51.796875 
Q 17.09375 56 29.390625 56 
Q 34.234375 56 39.546875 55.265625 
Q 44.875 54.546875 51.125 52.984375 
z
" id="DejaVuSans-Bold-115"/>
       <path d="M 63.375 33.296875 
L 63.375 0 
L 45.796875 0 
L 45.796875 5.421875 
L 45.796875 25.390625 
Q 45.796875 32.5625 45.484375 35.25 
Q 45.171875 37.9375 44.390625 39.203125 
Q 43.359375 40.921875 41.59375 41.875 
Q 39.84375 42.828125 37.59375 42.828125 
Q 32.125 42.828125 29 38.59375 
Q 25.875 34.375 25.875 26.90625 
L 25.875 0 
L 8.40625 0 
L 8.40625 75.984375 
L 25.875 75.984375 
L 25.875 46.6875 
Q 29.828125 51.46875 34.265625 53.734375 
Q 38.71875 56 44.09375 56 
Q 53.5625 56 58.46875 50.1875 
Q 63.375 44.390625 63.375 33.296875 
z
" id="DejaVuSans-Bold-104"/>
       <path d="M 32.90625 24.609375 
Q 27.4375 24.609375 24.671875 22.75 
Q 21.921875 20.90625 21.921875 17.28125 
Q 21.921875 13.96875 24.140625 12.078125 
Q 26.375 10.203125 30.328125 10.203125 
Q 35.25 10.203125 38.625 13.734375 
Q 42 17.28125 42 22.609375 
L 42 24.609375 
z
M 59.625 31.203125 
L 59.625 0 
L 42 0 
L 42 8.109375 
Q 38.484375 3.125 34.078125 0.84375 
Q 29.6875 -1.421875 23.390625 -1.421875 
Q 14.890625 -1.421875 9.59375 3.53125 
Q 4.296875 8.5 4.296875 16.40625 
Q 4.296875 26.03125 10.90625 30.515625 
Q 17.53125 35.015625 31.6875 35.015625 
L 42 35.015625 
L 42 36.375 
Q 42 40.53125 38.71875 42.453125 
Q 35.453125 44.390625 28.515625 44.390625 
Q 22.90625 44.390625 18.0625 43.265625 
Q 13.234375 42.140625 9.078125 39.890625 
L 9.078125 53.21875 
Q 14.703125 54.59375 20.359375 55.296875 
Q 26.03125 56 31.6875 56 
Q 46.484375 56 53.046875 50.171875 
Q 59.625 44.34375 59.625 31.203125 
z
" id="DejaVuSans-Bold-97"/>
       <path d="M 45.609375 46.6875 
L 45.609375 75.984375 
L 63.1875 75.984375 
L 63.1875 0 
L 45.609375 0 
L 45.609375 7.90625 
Q 42 3.078125 37.640625 0.828125 
Q 33.296875 -1.421875 27.59375 -1.421875 
Q 17.484375 -1.421875 10.984375 6.609375 
Q 4.5 14.65625 4.5 27.296875 
Q 4.5 39.9375 10.984375 47.96875 
Q 17.484375 56 27.59375 56 
Q 33.25 56 37.625 53.734375 
Q 42 51.46875 45.609375 46.6875 
z
M 34.078125 11.28125 
Q 39.703125 11.28125 42.65625 15.375 
Q 45.609375 19.484375 45.609375 27.296875 
Q 45.609375 35.109375 42.65625 39.203125 
Q 39.703125 43.3125 34.078125 43.3125 
Q 28.515625 43.3125 25.5625 39.203125 
Q 22.609375 35.109375 22.609375 27.296875 
Q 22.609375 19.484375 25.5625 15.375 
Q 28.515625 11.28125 34.078125 11.28125 
z
" id="DejaVuSans-Bold-100"/>
       <path d="M 62.984375 27.484375 
L 62.984375 22.515625 
L 22.125 22.515625 
Q 22.75 16.359375 26.5625 13.28125 
Q 30.375 10.203125 37.203125 10.203125 
Q 42.71875 10.203125 48.5 11.84375 
Q 54.296875 13.484375 60.40625 16.796875 
L 60.40625 3.328125 
Q 54.203125 0.984375 48 -0.21875 
Q 41.796875 -1.421875 35.59375 -1.421875 
Q 20.75 -1.421875 12.515625 6.125 
Q 4.296875 13.671875 4.296875 27.296875 
Q 4.296875 40.671875 12.375 48.328125 
Q 20.453125 56 34.625 56 
Q 47.515625 56 55.25 48.234375 
Q 62.984375 40.484375 62.984375 27.484375 
z
M 45.015625 33.296875 
Q 45.015625 38.28125 42.109375 41.328125 
Q 39.203125 44.390625 34.515625 44.390625 
Q 29.4375 44.390625 26.265625 41.53125 
Q 23.09375 38.671875 22.3125 33.296875 
z
" id="DejaVuSans-Bold-101"/>
      </defs>
      <use xlink:href="#DejaVuSans-Bold-115"/>
      <use x="59.521484" xlink:href="#DejaVuSans-Bold-104"/>
      <use x="130.712891" xlink:href="#DejaVuSans-Bold-97"/>
      <use x="198.193359" xlink:href="#DejaVuSans-Bold-100"/>
      <use x="269.775391" xlink:href="#DejaVuSans-Bold-101"/>
     </g>
    </g>
   </g>
   <g id="text_18">
    <g clip-path="url(#pa1e1e1aaac)">
     <!-- sidewalk -->
     <g transform="translate(53.18689 229.288193)scale(0.12 -0.12)">
      <defs>
       <path d="M 8.40625 54.6875 
L 25.875 54.6875 
L 25.875 0 
L 8.40625 0 
z
M 8.40625 75.984375 
L 25.875 75.984375 
L 25.875 61.71875 
L 8.40625 61.71875 
z
" id="DejaVuSans-Bold-105"/>
       <path d="M 3.515625 54.6875 
L 20.515625 54.6875 
L 29.6875 17 
L 38.921875 54.6875 
L 53.515625 54.6875 
L 62.703125 17.390625 
L 71.921875 54.6875 
L 88.921875 54.6875 
L 74.515625 0 
L 55.421875 0 
L 46.1875 37.59375 
L 37.015625 0 
L 17.921875 0 
z
" id="DejaVuSans-Bold-119"/>
       <path d="M 8.40625 75.984375 
L 25.875 75.984375 
L 25.875 0 
L 8.40625 0 
z
" id="DejaVuSans-Bold-108"/>
       <path d="M 8.40625 75.984375 
L 25.875 75.984375 
L 25.875 34.625 
L 46 54.6875 
L 66.3125 54.6875 
L 39.59375 29.59375 
L 68.40625 0 
L 47.21875 0 
L 25.875 22.796875 
L 25.875 0 
L 8.40625 0 
z
" id="DejaVuSans-Bold-107"/>
      </defs>
      <use xlink:href="#DejaVuSans-Bold-115"/>
      <use x="59.521484" xlink:href="#DejaVuSans-Bold-105"/>
      <use x="93.798828" xlink:href="#DejaVuSans-Bold-100"/>
      <use x="165.380859" xlink:href="#DejaVuSans-Bold-101"/>
      <use x="233.203125" xlink:href="#DejaVuSans-Bold-119"/>
      <use x="325.585938" xlink:href="#DejaVuSans-Bold-97"/>
      <use x="393.066406" xlink:href="#DejaVuSans-Bold-108"/>
      <use x="427.34375" xlink:href="#DejaVuSans-Bold-107"/>
     </g>
    </g>
   </g>
   <g id="text_19">
    <g clip-path="url(#pa1e1e1aaac)">
     <!-- man -->
     <g transform="translate(258.297583 146.779115)scale(0.12 -0.12)">
      <defs>
       <path d="M 59.078125 45.609375 
Q 62.40625 50.6875 66.96875 53.34375 
Q 71.53125 56 77 56 
Q 86.421875 56 91.359375 50.1875 
Q 96.296875 44.390625 96.296875 33.296875 
L 96.296875 0 
L 78.71875 0 
L 78.71875 28.515625 
Q 78.765625 29.15625 78.78125 29.828125 
Q 78.8125 30.515625 78.8125 31.78125 
Q 78.8125 37.59375 77.09375 40.203125 
Q 75.390625 42.828125 71.578125 42.828125 
Q 66.609375 42.828125 63.890625 38.71875 
Q 61.1875 34.625 61.078125 26.859375 
L 61.078125 0 
L 43.5 0 
L 43.5 28.515625 
Q 43.5 37.59375 41.9375 40.203125 
Q 40.375 42.828125 36.375 42.828125 
Q 31.34375 42.828125 28.609375 38.703125 
Q 25.875 34.578125 25.875 26.90625 
L 25.875 0 
L 8.296875 0 
L 8.296875 54.6875 
L 25.875 54.6875 
L 25.875 46.6875 
Q 29.109375 51.3125 33.28125 53.65625 
Q 37.453125 56 42.484375 56 
Q 48.140625 56 52.484375 53.265625 
Q 56.84375 50.53125 59.078125 45.609375 
z
" id="DejaVuSans-Bold-109"/>
       <path d="M 63.375 33.296875 
L 63.375 0 
L 45.796875 0 
L 45.796875 5.421875 
L 45.796875 25.484375 
Q 45.796875 32.5625 45.484375 35.25 
Q 45.171875 37.9375 44.390625 39.203125 
Q 43.359375 40.921875 41.59375 41.875 
Q 39.84375 42.828125 37.59375 42.828125 
Q 32.125 42.828125 29 38.59375 
Q 25.875 34.375 25.875 26.90625 
L 25.875 0 
L 8.40625 0 
L 8.40625 54.6875 
L 25.875 54.6875 
L 25.875 46.6875 
Q 29.828125 51.46875 34.265625 53.734375 
Q 38.71875 56 44.09375 56 
Q 53.5625 56 58.46875 50.1875 
Q 63.375 44.390625 63.375 33.296875 
z
" id="DejaVuSans-Bold-110"/>
      </defs>
      <use xlink:href="#DejaVuSans-Bold-109"/>
      <use x="104.199219" xlink:href="#DejaVuSans-Bold-97"/>
      <use x="171.679688" xlink:href="#DejaVuSans-Bold-110"/>
     </g>
    </g>
   </g>
   <g id="text_20">
    <g clip-path="url(#pa1e1e1aaac)">
     <!-- shoes -->
     <g transform="translate(151.384153 160.186983)scale(0.12 -0.12)">
      <defs>
       <path d="M 34.421875 43.5 
Q 28.609375 43.5 25.5625 39.328125 
Q 22.515625 35.15625 22.515625 27.296875 
Q 22.515625 19.4375 25.5625 15.25 
Q 28.609375 11.078125 34.421875 11.078125 
Q 40.140625 11.078125 43.15625 15.25 
Q 46.1875 19.4375 46.1875 27.296875 
Q 46.1875 35.15625 43.15625 39.328125 
Q 40.140625 43.5 34.421875 43.5 
z
M 34.421875 56 
Q 48.53125 56 56.46875 48.375 
Q 64.40625 40.765625 64.40625 27.296875 
Q 64.40625 13.8125 56.46875 6.1875 
Q 48.53125 -1.421875 34.421875 -1.421875 
Q 20.265625 -1.421875 12.28125 6.1875 
Q 4.296875 13.8125 4.296875 27.296875 
Q 4.296875 40.765625 12.28125 48.375 
Q 20.265625 56 34.421875 56 
z
" id="DejaVuSans-Bold-111"/>
      </defs>
      <use xlink:href="#DejaVuSans-Bold-115"/>
      <use x="59.521484" xlink:href="#DejaVuSans-Bold-104"/>
      <use x="130.712891" xlink:href="#DejaVuSans-Bold-111"/>
      <use x="199.414062" xlink:href="#DejaVuSans-Bold-101"/>
      <use x="267.236328" xlink:href="#DejaVuSans-Bold-115"/>
     </g>
    </g>
   </g>
   <g id="text_21">
    <g clip-path="url(#pa1e1e1aaac)">
     <!-- car -->
     <g transform="translate(79.227303 124.704534)scale(0.12 -0.12)">
      <defs>
       <path d="M 52.59375 52.984375 
L 52.59375 38.71875 
Q 49.03125 41.15625 45.4375 42.328125 
Q 41.84375 43.5 37.984375 43.5 
Q 30.671875 43.5 26.59375 39.234375 
Q 22.515625 34.96875 22.515625 27.296875 
Q 22.515625 19.625 26.59375 15.34375 
Q 30.671875 11.078125 37.984375 11.078125 
Q 42.09375 11.078125 45.78125 12.296875 
Q 49.46875 13.53125 52.59375 15.921875 
L 52.59375 1.609375 
Q 48.484375 0.09375 44.265625 -0.65625 
Q 40.046875 -1.421875 35.796875 -1.421875 
Q 21 -1.421875 12.640625 6.171875 
Q 4.296875 13.765625 4.296875 27.296875 
Q 4.296875 40.828125 12.640625 48.40625 
Q 21 56 35.796875 56 
Q 40.09375 56 44.265625 55.25 
Q 48.4375 54.5 52.59375 52.984375 
z
" id="DejaVuSans-Bold-99"/>
       <path d="M 49.03125 39.796875 
Q 46.734375 40.875 44.453125 41.375 
Q 42.1875 41.890625 39.890625 41.890625 
Q 33.15625 41.890625 29.515625 37.5625 
Q 25.875 33.25 25.875 25.203125 
L 25.875 0 
L 8.40625 0 
L 8.40625 54.6875 
L 25.875 54.6875 
L 25.875 45.703125 
Q 29.25 51.078125 33.609375 53.53125 
Q 37.984375 56 44.09375 56 
Q 44.96875 56 45.984375 55.921875 
Q 47.015625 55.859375 48.96875 55.609375 
z
" id="DejaVuSans-Bold-114"/>
      </defs>
      <use xlink:href="#DejaVuSans-Bold-99"/>
      <use x="59.277344" xlink:href="#DejaVuSans-Bold-97"/>
      <use x="126.757812" xlink:href="#DejaVuSans-Bold-114"/>
     </g>
    </g>
   </g>
   <g id="text_22">
    <g clip-path="url(#pa1e1e1aaac)">
     <!-- sign -->
     <g transform="translate(143.153387 228.034661)scale(0.12 -0.12)">
      <defs>
       <path d="M 45.609375 9.28125 
Q 42 4.5 37.640625 2.25 
Q 33.296875 0 27.59375 0 
Q 17.578125 0 11.03125 7.875 
Q 4.5 15.765625 4.5 27.984375 
Q 4.5 40.234375 11.03125 48.0625 
Q 17.578125 55.90625 27.59375 55.90625 
Q 33.296875 55.90625 37.640625 53.65625 
Q 42 51.421875 45.609375 46.578125 
L 45.609375 54.6875 
L 63.1875 54.6875 
L 63.1875 5.515625 
Q 63.1875 -7.671875 54.859375 -14.625 
Q 46.53125 -21.578125 30.71875 -21.578125 
Q 25.59375 -21.578125 20.796875 -20.796875 
Q 16.015625 -20.015625 11.1875 -18.40625 
L 11.1875 -4.78125 
Q 15.765625 -7.421875 20.15625 -8.71875 
Q 24.5625 -10.015625 29 -10.015625 
Q 37.59375 -10.015625 41.59375 -6.25 
Q 45.609375 -2.484375 45.609375 5.515625 
z
M 34.078125 43.3125 
Q 28.65625 43.3125 25.625 39.296875 
Q 22.609375 35.296875 22.609375 27.984375 
Q 22.609375 20.453125 25.53125 16.578125 
Q 28.46875 12.703125 34.078125 12.703125 
Q 39.546875 12.703125 42.578125 16.703125 
Q 45.609375 20.703125 45.609375 27.984375 
Q 45.609375 35.296875 42.578125 39.296875 
Q 39.546875 43.3125 34.078125 43.3125 
z
" id="DejaVuSans-Bold-103"/>
      </defs>
      <use xlink:href="#DejaVuSans-Bold-115"/>
      <use x="59.521484" xlink:href="#DejaVuSans-Bold-105"/>
      <use x="93.798828" xlink:href="#DejaVuSans-Bold-103"/>
      <use x="165.380859" xlink:href="#DejaVuSans-Bold-110"/>
     </g>
    </g>
   </g>
   <g id="text_23">
    <g clip-path="url(#pa1e1e1aaac)">
     <!-- tree trunk -->
     <g transform="translate(99.727402 95.165761)scale(0.12 -0.12)">
      <defs>
       <path d="M 27.484375 70.21875 
L 27.484375 54.6875 
L 45.515625 54.6875 
L 45.515625 42.1875 
L 27.484375 42.1875 
L 27.484375 19 
Q 27.484375 15.1875 29 13.84375 
Q 30.515625 12.5 35.015625 12.5 
L 44 12.5 
L 44 0 
L 29 0 
Q 18.65625 0 14.328125 4.3125 
Q 10.015625 8.640625 10.015625 19 
L 10.015625 42.1875 
L 1.3125 42.1875 
L 1.3125 54.6875 
L 10.015625 54.6875 
L 10.015625 70.21875 
z
" id="DejaVuSans-Bold-116"/>
       <path id="DejaVuSans-Bold-32"/>
       <path d="M 7.8125 21.296875 
L 7.8125 54.6875 
L 25.390625 54.6875 
L 25.390625 49.21875 
Q 25.390625 44.78125 25.34375 38.0625 
Q 25.296875 31.34375 25.296875 29.109375 
Q 25.296875 22.515625 25.640625 19.609375 
Q 25.984375 16.703125 26.8125 15.375 
Q 27.875 13.671875 29.609375 12.734375 
Q 31.34375 11.8125 33.59375 11.8125 
Q 39.0625 11.8125 42.1875 16.015625 
Q 45.3125 20.21875 45.3125 27.6875 
L 45.3125 54.6875 
L 62.796875 54.6875 
L 62.796875 0 
L 45.3125 0 
L 45.3125 7.90625 
Q 41.359375 3.125 36.9375 0.84375 
Q 32.515625 -1.421875 27.203125 -1.421875 
Q 17.71875 -1.421875 12.765625 4.390625 
Q 7.8125 10.203125 7.8125 21.296875 
z
" id="DejaVuSans-Bold-117"/>
      </defs>
      <use xlink:href="#DejaVuSans-Bold-116"/>
      <use x="47.802734" xlink:href="#DejaVuSans-Bold-114"/>
      <use x="97.119141" xlink:href="#DejaVuSans-Bold-101"/>
      <use x="164.941406" xlink:href="#DejaVuSans-Bold-101"/>
      <use x="232.763672" xlink:href="#DejaVuSans-Bold-32"/>
      <use x="267.578125" xlink:href="#DejaVuSans-Bold-116"/>
      <use x="315.380859" xlink:href="#DejaVuSans-Bold-114"/>
      <use x="364.697266" xlink:href="#DejaVuSans-Bold-117"/>
      <use x="435.888672" xlink:href="#DejaVuSans-Bold-110"/>
      <use x="507.080078" xlink:href="#DejaVuSans-Bold-107"/>
     </g>
    </g>
   </g>
   <g id="text_24">
    <g clip-path="url(#pa1e1e1aaac)">
     <!-- parking meter -->
     <g transform="translate(189.344227 93.561473)scale(0.12 -0.12)">
      <defs>
       <path d="M 25.875 7.90625 
L 25.875 -20.796875 
L 8.40625 -20.796875 
L 8.40625 54.6875 
L 25.875 54.6875 
L 25.875 46.6875 
Q 29.5 51.46875 33.890625 53.734375 
Q 38.28125 56 44 56 
Q 54.109375 56 60.59375 47.96875 
Q 67.09375 39.9375 67.09375 27.296875 
Q 67.09375 14.65625 60.59375 6.609375 
Q 54.109375 -1.421875 44 -1.421875 
Q 38.28125 -1.421875 33.890625 0.84375 
Q 29.5 3.125 25.875 7.90625 
z
M 37.5 43.3125 
Q 31.890625 43.3125 28.875 39.1875 
Q 25.875 35.0625 25.875 27.296875 
Q 25.875 19.53125 28.875 15.40625 
Q 31.890625 11.28125 37.5 11.28125 
Q 43.109375 11.28125 46.0625 15.375 
Q 49.03125 19.484375 49.03125 27.296875 
Q 49.03125 35.109375 46.0625 39.203125 
Q 43.109375 43.3125 37.5 43.3125 
z
" id="DejaVuSans-Bold-112"/>
      </defs>
      <use xlink:href="#DejaVuSans-Bold-112"/>
      <use x="71.582031" xlink:href="#DejaVuSans-Bold-97"/>
      <use x="139.0625" xlink:href="#DejaVuSans-Bold-114"/>
      <use x="188.378906" xlink:href="#DejaVuSans-Bold-107"/>
      <use x="254.882812" xlink:href="#DejaVuSans-Bold-105"/>
      <use x="289.160156" xlink:href="#DejaVuSans-Bold-110"/>
      <use x="360.351562" xlink:href="#DejaVuSans-Bold-103"/>
      <use x="431.933594" xlink:href="#DejaVuSans-Bold-32"/>
      <use x="466.748047" xlink:href="#DejaVuSans-Bold-109"/>
      <use x="570.947266" xlink:href="#DejaVuSans-Bold-101"/>
      <use x="638.769531" xlink:href="#DejaVuSans-Bold-116"/>
      <use x="686.572266" xlink:href="#DejaVuSans-Bold-101"/>
      <use x="754.394531" xlink:href="#DejaVuSans-Bold-114"/>
     </g>
    </g>
   </g>
   <g id="text_25">
    <g clip-path="url(#pa1e1e1aaac)">
     <!-- bike -->
     <g transform="translate(240.195997 120.732548)scale(0.12 -0.12)">
      <defs>
       <path d="M 37.5 11.28125 
Q 43.109375 11.28125 46.0625 15.375 
Q 49.03125 19.484375 49.03125 27.296875 
Q 49.03125 35.109375 46.0625 39.203125 
Q 43.109375 43.3125 37.5 43.3125 
Q 31.890625 43.3125 28.875 39.1875 
Q 25.875 35.0625 25.875 27.296875 
Q 25.875 19.53125 28.875 15.40625 
Q 31.890625 11.28125 37.5 11.28125 
z
M 25.875 46.6875 
Q 29.5 51.46875 33.890625 53.734375 
Q 38.28125 56 44 56 
Q 54.109375 56 60.59375 47.96875 
Q 67.09375 39.9375 67.09375 27.296875 
Q 67.09375 14.65625 60.59375 6.609375 
Q 54.109375 -1.421875 44 -1.421875 
Q 38.28125 -1.421875 33.890625 0.84375 
Q 29.5 3.125 25.875 7.90625 
L 25.875 0 
L 8.40625 0 
L 8.40625 75.984375 
L 25.875 75.984375 
z
" id="DejaVuSans-Bold-98"/>
      </defs>
      <use xlink:href="#DejaVuSans-Bold-98"/>
      <use x="71.582031" xlink:href="#DejaVuSans-Bold-105"/>
      <use x="105.859375" xlink:href="#DejaVuSans-Bold-107"/>
      <use x="169.738281" xlink:href="#DejaVuSans-Bold-101"/>
     </g>
    </g>
   </g>
   <g id="text_26">
    <g clip-path="url(#pa1e1e1aaac)">
     <!-- van -->
     <g transform="translate(80.2984 171.370842)scale(0.12 -0.12)">
      <defs>
       <path d="M 1.515625 54.6875 
L 19 54.6875 
L 32.625 16.890625 
L 46.1875 54.6875 
L 63.71875 54.6875 
L 42.1875 0 
L 23 0 
z
" id="DejaVuSans-Bold-118"/>
      </defs>
      <use xlink:href="#DejaVuSans-Bold-118"/>
      <use x="65.185547" xlink:href="#DejaVuSans-Bold-97"/>
      <use x="132.666016" xlink:href="#DejaVuSans-Bold-110"/>
     </g>
    </g>
   </g>
   <g id="text_27">
    <g clip-path="url(#pa1e1e1aaac)">
     <!-- shirt -->
     <g transform="translate(198.528963 222.379916)scale(0.12 -0.12)">
      <use xlink:href="#DejaVuSans-Bold-115"/>
      <use x="59.521484" xlink:href="#DejaVuSans-Bold-104"/>
      <use x="130.712891" xlink:href="#DejaVuSans-Bold-105"/>
      <use x="164.990234" xlink:href="#DejaVuSans-Bold-114"/>
      <use x="214.306641" xlink:href="#DejaVuSans-Bold-116"/>
     </g>
    </g>
   </g>
   <g id="text_28">
    <g clip-path="url(#pa1e1e1aaac)">
     <!-- lamp post -->
     <g transform="translate(372.634051 49.110971)scale(0.12 -0.12)">
      <use xlink:href="#DejaVuSans-Bold-108"/>
      <use x="34.277344" xlink:href="#DejaVuSans-Bold-97"/>
      <use x="101.757812" xlink:href="#DejaVuSans-Bold-109"/>
      <use x="205.957031" xlink:href="#DejaVuSans-Bold-112"/>
      <use x="277.539062" xlink:href="#DejaVuSans-Bold-32"/>
      <use x="312.353516" xlink:href="#DejaVuSans-Bold-112"/>
      <use x="383.935547" xlink:href="#DejaVuSans-Bold-111"/>
      <use x="452.636719" xlink:href="#DejaVuSans-Bold-115"/>
      <use x="512.158203" xlink:href="#DejaVuSans-Bold-116"/>
     </g>
    </g>
   </g>
   <g id="text_29">
    <g clip-path="url(#pa1e1e1aaac)">
     <!-- street -->
     <g transform="translate(308.364086 85.74682)scale(0.12 -0.12)">
      <use xlink:href="#DejaVuSans-Bold-115"/>
      <use x="59.521484" xlink:href="#DejaVuSans-Bold-116"/>
      <use x="107.324219" xlink:href="#DejaVuSans-Bold-114"/>
      <use x="156.640625" xlink:href="#DejaVuSans-Bold-101"/>
      <use x="224.462891" xlink:href="#DejaVuSans-Bold-101"/>
      <use x="292.285156" xlink:href="#DejaVuSans-Bold-116"/>
     </g>
    </g>
   </g>
   <g id="text_30">
    <g clip-path="url(#pa1e1e1aaac)">
     <!-- tree -->
     <g transform="translate(398.397699 103.22479)scale(0.12 -0.12)">
      <use xlink:href="#DejaVuSans-Bold-116"/>
      <use x="47.802734" xlink:href="#DejaVuSans-Bold-114"/>
      <use x="97.119141" xlink:href="#DejaVuSans-Bold-101"/>
      <use x="164.941406" xlink:href="#DejaVuSans-Bold-101"/>
     </g>
    </g>
   </g>
   <g id="text_31">
    <g clip-path="url(#pa1e1e1aaac)">
     <!-- building -->
     <g transform="translate(327.092476 16.355284)scale(0.12 -0.12)">
      <use xlink:href="#DejaVuSans-Bold-98"/>
      <use x="71.582031" xlink:href="#DejaVuSans-Bold-117"/>
      <use x="142.773438" xlink:href="#DejaVuSans-Bold-105"/>
      <use x="177.050781" xlink:href="#DejaVuSans-Bold-108"/>
      <use x="211.328125" xlink:href="#DejaVuSans-Bold-100"/>
      <use x="282.910156" xlink:href="#DejaVuSans-Bold-105"/>
      <use x="317.1875" xlink:href="#DejaVuSans-Bold-110"/>
      <use x="388.378906" xlink:href="#DejaVuSans-Bold-103"/>
     </g>
    </g>
   </g>
  </g>
 </g>
 <defs>
  <clipPath id="pa1e1e1aaac">
   <rect height="288" width="432" x="0" y="0"/>
  </clipPath>
 </defs>
</svg>
